<svg width="129" height="28" viewBox="0 0 129 28" fill="none" xmlns="http://www.w3.org/2000/svg">
<path fill-rule="evenodd" clip-rule="evenodd" d="M127.761 7.89237C126.275 7.27793 124.898 6.97096 123.629 6.97096C122.391 6.97096 121.41 7.17422 120.686 7.58022C119.963 7.98622 119.601 8.55141 119.601 9.27422C119.601 10.067 119.883 10.7007 120.449 11.1767C121.003 11.6521 122.098 12.1821 123.733 12.7664C125.1 13.2523 126.096 13.6977 126.72 14.1042C127.344 14.4905 127.815 14.9364 128.132 15.442C128.44 15.9372 128.593 16.5267 128.593 17.2101C128.593 18.5676 128.073 19.613 127.032 20.3461C126.002 21.0695 124.541 21.4314 122.648 21.4314C120.628 21.4314 119.022 21.1187 117.833 20.4944V19.0084C119.359 19.7716 120.964 20.1533 122.648 20.1533C124.145 20.1533 125.284 19.9049 126.067 19.4097C126.839 18.9041 127.226 18.2404 127.226 17.4181C127.226 16.6553 126.919 16.0113 126.304 15.4861C125.681 14.9707 124.66 14.4604 123.243 13.9554C121.737 13.4104 120.677 12.9448 120.062 12.558C119.448 12.152 118.988 11.7061 118.681 11.2207C118.364 10.7152 118.205 10.1064 118.205 9.39296C118.205 8.25378 118.686 7.35674 119.647 6.70289C120.587 6.03918 121.915 5.70733 123.629 5.70733C125.264 5.70733 126.815 6.01481 128.281 6.62874L127.761 7.89237ZM116.257 6.39126L115.871 7.62481C114.563 7.18874 113.429 6.97096 112.468 6.97096C110.605 6.97096 109.198 7.54548 108.247 8.69504C107.286 9.83422 106.806 11.4841 106.806 13.6443C106.806 15.6852 107.286 17.2848 108.247 18.4447C109.198 19.5938 110.536 20.1683 112.26 20.1683C113.627 20.1683 114.9 19.9256 116.079 19.4403V20.7184C115.118 21.1939 113.855 21.4319 112.289 21.4319C110.119 21.4319 108.42 20.7485 107.192 19.3807C105.973 18.0133 105.364 16.1109 105.364 13.6739C105.364 11.157 105.998 9.20578 107.266 7.81874C108.534 6.412 110.278 5.70837 112.498 5.70837C113.805 5.70733 115.058 5.93548 116.257 6.39126ZM83.8293 3.32941C85.5239 5.03378 86.3706 7.51541 86.3706 10.7753C86.3706 14.1934 85.4741 16.7793 83.6805 18.5334C81.887 20.2767 79.2513 21.1488 75.7736 21.1488H70.8996V0.773629H76.3979C79.6584 0.773629 82.1348 1.62556 83.8293 3.32941ZM76.0713 2.03674H72.3265V19.9002H75.7C81.7833 19.9002 84.8249 16.8736 84.8249 10.8199C84.8249 7.90689 84.087 5.7177 82.6103 4.25133C81.1242 2.77511 78.9449 2.03674 76.0713 2.03674ZM67.6599 10.9983V21.1488H63.4096V12.0535C63.4096 10.9241 63.2063 10.0816 62.8003 9.52674C62.4042 8.96207 61.77 8.67948 60.8979 8.67948C59.7089 8.67948 58.8471 9.08081 58.312 9.88348C57.7873 10.6659 57.5244 11.9793 57.5244 13.8221V21.1488H53.2741V5.57407H56.5138L57.0935 7.5657H57.331C57.8065 6.81281 58.4603 6.24763 59.293 5.87118C60.1149 5.47504 61.0565 5.27696 62.1169 5.27696C63.9302 5.27696 65.3073 5.77267 66.2479 6.76304C67.189 7.7337 67.6599 9.14563 67.6599 10.9983ZM92.0479 8.69504C91.1363 9.83422 90.6805 11.4546 90.6805 13.5551C90.6805 15.6354 91.1415 17.2604 92.0629 18.4297C92.9745 19.5886 94.2671 20.1688 95.9414 20.1688C97.6059 20.1688 98.899 19.5891 99.8199 18.4297C100.731 17.2604 101.187 15.6354 101.187 13.5551C101.187 11.4644 100.727 9.84459 99.8054 8.69504C98.8742 7.546 97.5763 6.97096 95.9113 6.97096C94.2376 6.97096 92.9496 7.54548 92.0479 8.69504ZM95.9565 5.70733C98.0373 5.70733 99.6722 6.41096 100.861 7.8177C102.04 9.20474 102.629 11.117 102.629 13.5541C102.629 16.0207 102.035 17.9532 100.847 19.3501C99.6473 20.7371 97.9927 21.4309 95.8828 21.4309C94.5549 21.4309 93.3862 21.1084 92.375 20.4649C91.3546 19.8209 90.5768 18.8995 90.0417 17.7007C89.5071 16.5117 89.2396 15.1293 89.2396 13.5541C89.2396 11.087 89.8385 9.16481 91.0378 7.78763C92.2262 6.40111 93.8658 5.70733 95.9565 5.70733ZM29.2278 8.68C28.1778 8.68 27.415 9.00718 26.939 9.66104C26.4532 10.2952 26.2007 11.355 26.181 12.8411V13.3016C26.181 14.9759 26.4335 16.1752 26.939 16.8985C27.4249 17.6224 28.2068 17.9833 29.2869 17.9833C31.1888 17.9833 32.1403 16.4132 32.1403 13.2725C32.1403 11.7465 31.9075 10.6027 31.4419 9.83941C30.9762 9.0663 30.2384 8.68 29.2278 8.68ZM34.9201 7.41689C35.9602 8.83348 36.4803 10.8054 36.4803 13.3316C36.4803 14.9961 36.2376 16.4427 35.7523 17.6711C35.2566 18.8901 34.5582 19.8209 33.6565 20.4654C32.7547 21.1089 31.6996 21.4314 30.4909 21.4314C28.6579 21.4314 27.2211 20.7677 26.181 19.4398H25.958C26.1068 20.7376 26.181 21.4905 26.181 21.6984V28H21.9307V5.57407H25.3933L25.9876 7.59526H26.181C27.1719 6.05007 28.6429 5.27696 30.5946 5.27696C32.4379 5.27644 33.8794 5.98993 34.9201 7.41689ZM19.8348 11.117C19.8053 14.3961 18.9684 16.9281 17.3236 18.7113C15.6493 20.5245 13.2512 21.4309 10.1302 21.4309C7.00927 21.4309 4.61216 20.525 2.93734 18.7118C1.2729 16.8985 0.440674 14.2976 0.440674 10.9091C0.440674 7.52059 1.27808 4.93474 2.95238 3.15156C4.39904 1.60585 6.39016 0.729036 8.92675 0.521111V4.17667C7.80675 4.39444 6.92008 4.93474 6.26623 5.79704C5.3946 6.94607 4.95853 8.6603 4.95853 10.9392C4.95853 13.2181 5.38941 14.9323 6.25171 16.0813C7.12334 17.2304 8.41653 17.8049 10.1302 17.8049C13.5385 17.8049 15.2625 15.5758 15.3019 11.1176H19.8348V11.117ZM44.6247 5.27644C46.8242 5.27644 48.5379 5.90541 49.7668 7.16385C50.9957 8.41244 51.6096 10.1412 51.6096 12.3506V14.4164H41.5628C41.6121 15.625 41.9693 16.5708 42.6325 17.2553C43.3066 17.9288 44.2477 18.2653 45.4559 18.2653C46.3876 18.2653 47.2743 18.1668 48.1164 17.9682C48.9486 17.7805 49.8207 17.4679 50.7318 17.0318V20.3311C49.9887 20.6977 49.1965 20.9751 48.3539 21.1628C47.5019 21.3417 46.4665 21.4309 45.2479 21.4309C42.7414 21.4309 40.784 20.7371 39.3773 19.3501C37.9602 17.9625 37.2519 16.001 37.2519 13.4649C37.2519 10.8588 37.9057 8.848 39.2134 7.43089C40.5227 5.99511 42.3256 5.27644 44.6247 5.27644ZM42.5439 9.17052C42.0285 9.73518 41.7365 10.5425 41.667 11.5925H47.6269C47.6072 10.5425 47.3298 9.73467 46.7947 9.17052C46.2699 8.596 45.5565 8.30822 44.6553 8.30822C43.7541 8.30822 43.0489 8.596 42.5439 9.17052Z" fill="#2A96CD"/>
<path fill-rule="evenodd" clip-rule="evenodd" d="M16.7143 9.20007V5.44029L10.7395 11.8456L8.3916 9.82437L14.4256 3.34444L11.1558 3.38903V0.461479H19.5823L19.5677 9.20007H16.7143Z" fill="#2A96CD"/>
</svg>

